<?xml version="1.0" encoding="utf-8"?>
<!-- Generator: Adobe Illustrator 23.0.2, SVG Export Plug-In . SVG Version: 6.00 Build 0)  -->
<svg version="1.1" id="풍량_설정_사본" xmlns="http://www.w3.org/2000/svg" xmlns:xlink="http://www.w3.org/1999/xlink"
	 x="0px" y="0px" viewBox="0 0 250 250" style="enable-background:new 0 0 250 250;" xml:space="preserve">
<style type="text/css">
	.st0{fill:#231815;}
</style>
<path id="패스_419" class="st0" d="M209.5,107.2c-8.1-7.5-18.2-12.5-29-14.5l15.9-5.1l-2.1-6.6l-26.4,8.5l15.2,22.5l5.8-3.9
	l-9.2-13.6c9.3,4.8,18.1,10.5,23.4,18.1c6.9,9.5,1.3,18.4-8.3,24.3c-10.3,5.9-21.5,9.8-33.1,11.6c-24,4.4-48.6,4.4-72.7,0
	c-11.7-1.8-22.9-5.8-33.2-11.6c-9.6-5.9-15.3-14.7-8.5-24.2C52.3,105,61,99.3,70.3,94.5L61.2,108l5.8,3.9l15.2-22.5l-26.4-8.5
	l-2.1,6.6l16,5.1c-10.9,2-21,7.1-29.1,14.6c-2.7,2.8-4.7,6.2-5.9,9.9c-1.2,4-1.3,8.3-0.2,12.4c2.2,8.2,7.9,13.9,13.4,18.4
	c11.4,8.9,24.6,13.3,37.6,16.7c26.2,6.1,53.5,6.1,79.6-0.1c13-3.4,26.2-7.8,37.6-16.7c5.5-4.4,11.2-10.2,13.3-18.5
	C217.8,121.3,215.3,112.9,209.5,107.2z"/>
</svg>
