<?xml version="1.0" encoding="utf-8"?>
<!-- Generator: Adobe Illustrator 23.0.2, SVG Export Plug-In . SVG Version: 6.00 Build 0)  -->
<svg version="1.1" id="풍량_설정" xmlns="http://www.w3.org/2000/svg" xmlns:xlink="http://www.w3.org/1999/xlink" x="0px"
	 y="0px" viewBox="0 0 250 250" style="enable-background:new 0 0 250 250;" xml:space="preserve">
<style type="text/css">
	.st0{fill:#231815;}
</style>
<path id="패스_333" class="st0" d="M63.7,100.9h69.9c12.5-0.1,22.5-10.4,22.4-22.9c-0.1-12.3-10.1-22.2-22.4-22.4V39
	c21.7,0.2,39.1,17.9,38.9,39.6c-0.2,21.4-17.5,38.7-38.9,38.9H63.7V100.9z M151.4,164H50.4v16.6h101.1L151.4,164z M160.4,132.5h-81
	v16.6h81c12.5,0.1,22.5,10.4,22.4,22.9c-0.1,12.3-10.1,22.2-22.4,22.4V211c21.7,0,39.3-17.6,39.3-39.3
	C199.6,150,182,132.5,160.4,132.5z"/>
</svg>
