<?xml version="1.0" encoding="utf-8"?>
<!-- Generator: Adobe Illustrator 23.0.2, SVG Export Plug-In . SVG Version: 6.00 Build 0)  -->
<svg version="1.1" id="통화" xmlns="http://www.w3.org/2000/svg" xmlns:xlink="http://www.w3.org/1999/xlink" x="0px" y="0px"
	 viewBox="0 0 250 250" style="enable-background:new 0 0 250 250;" xml:space="preserve">
<style type="text/css">
	.st0{opacity:0.902;fill:#00CB7C;enable-background:new    ;}
	.st1{fill:#FFFFFF;}
</style>
<circle class="st0" cx="125" cy="125" r="57"/>
<g>
	<path class="st1" d="M109.4,101.1c-1,0-2,0.4-2.7,1.1l-2.1,2.1c-4.2,4.2-4.7,10.7-1.3,15.5c5.2,7.4,14.1,18,27,27
		c2,1.4,4.4,2.2,6.9,2.2c3.2,0,6.3-1.3,8.5-3.5l2.1-2.1c0.8-0.8,1.2-1.9,1.1-3.1c-0.1-1.1-0.7-2.2-1.7-2.8l-8.1-5.3
		c-0.6-0.4-1.3-0.6-2.1-0.6c-1,0-2,0.4-2.7,1.1l-0.2,0.2c-1,1-2.3,1.5-3.7,1.5c-1.2,0-2.2-0.4-3.2-1.1c-2.6-2-6.5-5.5-10.4-10.6
		c-1.6-2.1-1.4-5,0.4-6.9l0.1-0.1c1.3-1.3,1.5-3.3,0.5-4.7l-5.3-8.1C111.9,101.7,110.7,101.1,109.4,101.1L109.4,101.1z"/>
</g>
</svg>
