<?xml version="1.0" encoding="utf-8"?>
<!-- Generator: Adobe Illustrator 23.0.2, SVG Export Plug-In . SVG Version: 6.00 Build 0)  -->
<svg version="1.1" id="전체_거절" xmlns="http://www.w3.org/2000/svg" xmlns:xlink="http://www.w3.org/1999/xlink" x="0px"
	 y="0px" viewBox="0 0 250 250" style="enable-background:new 0 0 250 250;" xml:space="preserve">
<style type="text/css">
	.st0{fill:#EB5C6D;}
	.st1{fill:#FFFFFF;}
</style>
<circle class="st0" cx="125" cy="125" r="57"/>
<path class="st1" d="M140.4,115.6c-8.3,0-15.1,6.8-15.1,15.1c0,8.3,6.8,15.1,15.1,15.1c8.3,0,15.1-6.8,15.1-15.1
	C155.5,122.4,148.7,115.6,140.4,115.6z M140.4,119c2.6,0,5.1,0.9,7.1,2.4L131,137.8c-1.5-2-2.4-4.4-2.4-7.1
	C128.6,124.3,133.9,119,140.4,119z M140.4,142.5c-2.6,0-5.1-0.9-7.1-2.4l16.5-16.5c1.5,2,2.4,4.4,2.4,7.1
	C152.2,137.2,146.9,142.5,140.4,142.5z M133.6,148.2H94.5c2.1-9.5,7-17,15.1-19.7c-4.6-2.3-7.7-7.1-7.7-12.6
	c0-7.8,6.3-14.1,14.1-14.1c7.5,0,13.6,5.8,14.1,13.1c-5.2,3.3-8.6,9.2-8.6,15.8C121.6,138.7,126.6,145.5,133.6,148.2z"/>
</svg>
