<?xml version="1.0" encoding="utf-8"?>
<!-- Generator: Adobe Illustrator 23.0.2, SVG Export Plug-In . SVG Version: 6.00 Build 0)  -->
<svg version="1.1" id="거절" xmlns="http://www.w3.org/2000/svg" xmlns:xlink="http://www.w3.org/1999/xlink" x="0px" y="0px"
	 viewBox="0 0 250 250" style="enable-background:new 0 0 250 250;" xml:space="preserve">
<style type="text/css">
	.st0{fill:#EB5C6D;}
	.st1{fill:#FFFFFF;}
</style>
<circle class="st0" cx="125" cy="125" r="57"/>
<path class="st1" d="M125,101.1c-13.2,0-23.9,10.7-23.9,23.9s10.7,23.9,23.9,23.9c13.2,0,23.9-10.7,23.9-23.9S138.2,101.1,125,101.1
	z M125,106.1c4.3,0,8.3,1.5,11.5,3.9L110,136.5c-2.4-3.2-3.9-7.2-3.9-11.5C106.1,114.6,114.6,106.1,125,106.1z M125,143.9
	c-4.3,0-8.3-1.5-11.5-3.9l26.5-26.5c2.4,3.2,3.9,7.2,3.9,11.5C143.9,135.4,135.4,143.9,125,143.9z"/>
</svg>
