<?xml version="1.0" encoding="utf-8"?>
<!-- Generator: Adobe Illustrator 23.0.2, SVG Export Plug-In . SVG Version: 6.00 Build 0)  -->
<svg version="1.1" id="끊기" xmlns="http://www.w3.org/2000/svg" xmlns:xlink="http://www.w3.org/1999/xlink" x="0px" y="0px"
	 viewBox="0 0 250 250" style="enable-background:new 0 0 250 250;" xml:space="preserve">
<style type="text/css">
	.st0{fill:#EB5C6D;}
	.st1{fill:#FFFFFF;}
</style>
<circle class="st0" cx="125" cy="125" r="57"/>
<g>
	<path class="st1" d="M152.9,134c0.7-0.7,1.1-1.7,1.1-2.7l0-3c0-5.9-4.2-10.9-10-11.9c-8.9-1.5-22.7-2.8-38.2,0
		c-2.4,0.4-4.6,1.6-6.4,3.3c-2.3,2.3-3.5,5.3-3.5,8.5l0,3c0,1.1,0.5,2.2,1.4,2.9c0.9,0.7,2.1,1,3.2,0.8l9.5-2c0.7-0.2,1.4-0.5,1.9-1
		c0.7-0.7,1.1-1.7,1.1-2.7l0-0.3c0-1.4,0.5-2.7,1.5-3.7c0.8-0.8,1.9-1.3,3-1.5c3.2-0.4,8.4-0.7,14.9,0.1c2.6,0.3,4.6,2.5,4.6,5.1
		l0,0.1c0,1.8,1.3,3.3,3,3.7l9.5,2C150.7,135.3,152,134.9,152.9,134L152.9,134z"/>
</g>
</svg>
