<?xml version="1.0" encoding="utf-8"?>
<!-- Generator: Adobe Illustrator 23.0.2, SVG Export Plug-In . SVG Version: 6.00 Build 0)  -->
<svg version="1.1" id="관리비_x5F_난방" xmlns="http://www.w3.org/2000/svg" xmlns:xlink="http://www.w3.org/1999/xlink"
	 x="0px" y="0px" viewBox="0 0 250 250" style="enable-background:new 0 0 250 250;" xml:space="preserve">
<style type="text/css">
	.st0{fill:#FFFFFF;}
	.st1{fill:#DE6D6E;}
</style>
<g id="그룹_2110" transform="translate(-19 -142)">
	<path id="사각형_3975" class="st0" d="M144,210L144,210c31.5,0,57,25.5,57,57l0,0c0,31.5-25.5,57-57,57l0,0
		c-31.5,0-57-25.5-57-57l0,0C87,235.5,112.5,210,144,210z"/>
	<path id="패스_323" class="st1" d="M156.2,272v-30.9c0-7-5.7-12.7-12.7-12.7c-7,0-12.7,5.7-12.7,12.7V272
		c-4.1,3.6-6.5,8.9-6.5,14.4c0,10.6,8.6,19.2,19.2,19.2c10.6,0,19.2-8.6,19.2-19.2C162.7,280.9,160.3,275.6,156.2,272z M143.4,300.8
		c-8,0-14.4-6.5-14.4-14.4c0-4.5,2.1-8.7,5.6-11.4l0.9-0.7v-33.2c0-4.4,3.5-7.9,7.9-7.9c4.4,0,7.9,3.5,7.9,7.9v33.2l0.9,0.7
		c3.5,2.7,5.6,6.9,5.6,11.4C157.9,294.4,151.4,300.8,143.4,300.8L143.4,300.8z M151.5,286.4c0,4.5-3.6,8.1-8.1,8.1
		c-4.5,0-8.1-3.6-8.1-8.1c0-3.5,2.3-6.7,5.7-7.7v-15.3h4.8v15.3C149.2,279.7,151.5,282.9,151.5,286.4L151.5,286.4z M167,241.1v4.8
		h-6v-4.8H167z M160.9,253.9h6v4.8h-6V253.9z M160.9,266.7h6v4.8h-6V266.7z"/>
</g>
</svg>
