<?xml version="1.0" encoding="utf-8"?>
<!-- Generator: Adobe Illustrator 23.0.2, SVG Export Plug-In . SVG Version: 6.00 Build 0)  -->
<svg version="1.1" id="관리비_x5F_수도" xmlns="http://www.w3.org/2000/svg" xmlns:xlink="http://www.w3.org/1999/xlink"
	 x="0px" y="0px" viewBox="0 0 250 250" style="enable-background:new 0 0 250 250;" xml:space="preserve">
<style type="text/css">
	.st0{fill:#FFFFFF;}
	.st1{opacity:0.6;fill:#40B2FF;enable-background:new    ;}
	.st2{opacity:0.95;fill:#85CEFF;enable-background:new    ;}
</style>
<g id="그룹_2109" transform="translate(-19 -142)">
	<path id="사각형_3976" class="st0" d="M144,210L144,210c31.5,0,57,25.5,57,57l0,0c0,31.5-25.5,57-57,57l0,0
		c-31.5,0-57-25.5-57-57l0,0C87,235.5,112.5,210,144,210z"/>
	<g id="그룹_2062" transform="translate(25.001 252)">
		<path id="패스_325" class="st1" d="M134.5,14.8c5.5,0,9.9-4.4,9.9-9.9l0,0c0-5.5-7.1-16.3-9.9-20.2c-2.8,3.9-9.9,14.7-9.9,20.2
			C124.6,10.3,129,14.8,134.5,14.8L134.5,14.8z"/>
		<path id="패스_326" class="st2" d="M108.1,42.9c9.1,0,16.4-7.3,16.4-16.4c0-9.1-11.7-27-16.4-33.3c-4.7,6.4-16.4,24.3-16.4,33.3
			C91.7,35.6,99.1,42.9,108.1,42.9z"/>
	</g>
</g>
</svg>
