<?xml version="1.0" encoding="utf-8"?>
<!-- Generator: Adobe Illustrator 23.0.2, SVG Export Plug-In . SVG Version: 6.00 Build 0)  -->
<svg version="1.1" id="관리비_x5F_기타" xmlns="http://www.w3.org/2000/svg" xmlns:xlink="http://www.w3.org/1999/xlink"
	 x="0px" y="0px" viewBox="0 0 250 250" style="enable-background:new 0 0 250 250;" xml:space="preserve">
<style type="text/css">
	.st0{fill:#FFFFFF;}
	.st1{fill:#727272;}
</style>
<g id="그룹_2109_1_" transform="translate(-19 -142)">
	<path id="사각형_3976_1_" class="st0" d="M144,210L144,210c31.5,0,57,25.5,57,57l0,0c0,31.5-25.5,57-57,57l0,0
		c-31.5,0-57-25.5-57-57l0,0C87,235.5,112.5,210,144,210z"/>
	<g>
		<path class="st1" d="M112.1,283.1c-0.7,0-1.1-0.1-1.2-0.3c-0.1-0.2-0.2-0.6-0.2-1.3v-29.2c0-0.6,0.1-1,0.2-1.2
			c0.1-0.2,0.5-0.3,1.1-0.3h14.9c0.5,0,0.7,0.1,0.8,0.3c0.1,0.2,0.1,0.4,0.1,0.8v3.3c0,0.4,0,0.6-0.1,0.8c-0.1,0.1-0.3,0.2-0.8,0.2
			h-10.5v7.9h10c0.4,0,0.7,0.1,0.8,0.3c0.1,0.2,0.1,0.4,0.1,0.8v3.3c0,0.4-0.1,0.6-0.1,0.8c-0.1,0.1-0.3,0.2-0.7,0.2h-10v8.6h10.9
			c0.4,0,0.7,0.1,0.8,0.2c0.1,0.1,0.1,0.4,0.1,0.8v3.3c0,0.4,0,0.6-0.1,0.8c-0.1,0.2-0.3,0.2-0.8,0.2H112.1z"/>
		<path class="st1" d="M145.3,256.2v26.1c0,0.3-0.1,0.6-0.2,0.7c-0.1,0.1-0.3,0.2-0.6,0.2h-4.1c-0.3,0-0.5-0.1-0.6-0.2
			c-0.1-0.1-0.2-0.3-0.2-0.7v-26.1h-7.4c-0.3,0-0.5-0.1-0.6-0.2c-0.1-0.1-0.2-0.3-0.2-0.6v-3.6c0-0.6,0.3-0.8,0.8-0.8h20.6
			c0.4,0,0.6,0.1,0.7,0.2c0.1,0.1,0.1,0.3,0.1,0.6v3.6c0,0.3-0.1,0.5-0.1,0.6c-0.1,0.1-0.3,0.2-0.7,0.2H145.3z"/>
		<path class="st1" d="M176.5,282.7c-0.8,0.3-1.8,0.5-2.9,0.7c-1.1,0.2-2.4,0.3-3.9,0.3c-2.4,0-4.6-0.4-6.6-1.2
			c-2-0.8-3.7-1.9-5.1-3.4s-2.5-3.2-3.3-5.3c-0.8-2-1.2-4.3-1.2-6.8c0-2.5,0.4-4.7,1.2-6.8c0.8-2,1.9-3.8,3.3-5.3
			c1.4-1.5,3.1-2.6,5.1-3.4c2-0.8,4.2-1.2,6.6-1.2c1.3,0,2.5,0.1,3.6,0.2s2.3,0.4,3.3,0.7c0.4,0.1,0.6,0.3,0.6,0.5
			c0,0.2,0,0.4,0,0.7l-0.1,3.6c0,0.5-0.1,0.7-0.3,0.8c-0.2,0.1-0.6,0-1.1-0.1c-1.3-0.4-2.4-0.6-3.4-0.7c-1-0.1-2-0.2-3.1-0.2
			c-1.6,0-3,0.3-4.2,0.8c-1.2,0.5-2.3,1.3-3.2,2.3c-0.9,1-1.5,2.2-2,3.5c-0.5,1.4-0.7,2.9-0.7,4.5c0,1.6,0.3,3.1,0.8,4.5
			c0.5,1.4,1.2,2.5,2.1,3.5c0.9,1,1.9,1.8,3.2,2.4c1.2,0.6,2.5,1,4,1.1c1.3,0.1,2.6,0.1,3.8-0.1c1.2-0.2,2.2-0.5,3-0.8
			c0.4-0.1,0.6-0.2,0.7-0.1c0.1,0.1,0.2,0.2,0.2,0.5l0.2,3.8c0,0.3,0,0.5-0.1,0.6C177.1,282.4,176.8,282.5,176.5,282.7z"/>
	</g>
</g>
</svg>
