<?xml version="1.0" encoding="utf-8"?>
<!-- Generator: Adobe Illustrator 23.0.2, SVG Export Plug-In . SVG Version: 6.00 Build 0)  -->
<svg version="1.1" id="관리비_x5F_일반" xmlns="http://www.w3.org/2000/svg" xmlns:xlink="http://www.w3.org/1999/xlink"
	 x="0px" y="0px" viewBox="0 0 250 250" style="enable-background:new 0 0 250 250;" xml:space="preserve">
<style type="text/css">
	.st0{fill:#FFFFFF;}
	.st1{enable-background:new    ;}
	.st2{fill:#F1C63A;}
</style>
<g>
	<g id="그룹_2110_6_" transform="translate(-19 -142)">
		<path id="사각형_3975_6_" class="st0" d="M144,210L144,210c31.5,0,57,25.5,57,57l0,0c0,31.5-25.5,57-57,57l0,0
			c-31.5,0-57-25.5-57-57l0,0C87,235.5,112.5,210,144,210z"/>
	</g>
	<g>
		<g id="그룹_2110_5_" transform="translate(-19 -142)" class="st1">
			<path id="사각형_3975_5_" class="st2" d="M144,233.2L144,233.2c18.7,0,33.8,15.1,33.8,33.8l0,0c0,18.7-15.1,33.8-33.8,33.8
				l0,0c-18.7,0-33.8-15.1-33.8-33.8l0,0C110.2,248.3,125.3,233.2,144,233.2z"/>
		</g>
		<g>
			<path class="st0" d="M115.6,111v2c-1,0-1.8,0.1-2.3,0.2c-0.6,0.1-1,0.3-1.3,0.6c-0.3,0.3-0.4,0.7-0.4,1.2c0,0.5,0.1,1.1,0.4,1.9
				l2.2,6.8h9.2l0.8-2.2l-2-5.2c-0.2-0.5-0.4-1-0.6-1.4c-0.2-0.4-0.5-0.7-0.8-1c-0.3-0.2-0.8-0.4-1.3-0.6c-0.5-0.1-1.2-0.2-2-0.3v-2
				h13.3v2c-1,0-1.8,0.1-2.4,0.2c-0.6,0.1-1,0.3-1.3,0.6c-0.3,0.3-0.4,0.7-0.3,1.2c0,0.5,0.2,1.2,0.5,2l2.3,6.7h8.9l1.8-6.1
				c0.2-0.8,0.4-1.4,0.5-2c0.1-0.6,0.1-1-0.1-1.4c-0.2-0.4-0.5-0.7-1-0.9c-0.5-0.2-1.2-0.3-2.2-0.3v-2h11.5v1.9
				c-1.4,0.2-2.4,0.5-3.1,0.9c-0.7,0.4-1.2,1.2-1.5,2.2l-2.4,7.7h6.7v3.4h-7.8l-5.9,19H133l-6.7-19h-0.5l-6.8,19h-2l-6.3-19h-8.1
				v-3.4h7l-2.2-6.4c-0.2-0.8-0.4-1.4-0.7-1.9c-0.2-0.5-0.5-1-0.9-1.3c-0.4-0.3-0.8-0.6-1.4-0.7c-0.5-0.2-1.2-0.2-2-0.3v-2H115.6z
				 M115.3,127.1l3.3,10.3l3.6-10.3H115.3z M130.5,127.1l3.6,10.5l3.1-10.5H130.5z"/>
		</g>
	</g>
</g>
</svg>
