<?xml version="1.0" encoding="utf-8"?>
<!-- Generator: Adobe Illustrator 23.0.2, SVG Export Plug-In . SVG Version: 6.00 Build 0)  -->
<svg version="1.1" id="관리비_x5F_세대" xmlns="http://www.w3.org/2000/svg" xmlns:xlink="http://www.w3.org/1999/xlink"
	 x="0px" y="0px" viewBox="0 0 250 250" style="enable-background:new 0 0 250 250;" xml:space="preserve">
<style type="text/css">
	.st0{fill:#FFFFFF;}
	.st1{fill:#CCCCCC;}
	.st2{enable-background:new    ;}
	.st3{fill:#F1C63A;}
</style>
<g>
	<circle id="타원_268_22_" class="st0" cx="125" cy="125" r="57"/>
	<g>
		<path class="st1" d="M160.9,112.9l-31.2-26.1c-2.7-2.3-6.6-2.3-9.3,0l-31.2,26.1c-2.3,2-3.2,5.2-2.2,8c1,2.9,3.8,4.8,6.8,4.8h2.6
			v20.7c0,4,3.3,7.3,7.3,7.3h42.8c4,0,7.3-3.3,7.3-7.3v-20.7h2.6c3.1,0,5.8-1.9,6.8-4.8C164.1,118.1,163.2,114.9,160.9,112.9z"/>
	</g>
	<g>
		<g id="그룹_2110_3_" transform="translate(-19 -142)" class="st2">
			<path id="사각형_3975_3_" class="st3" d="M157.4,261.4L157.4,261.4c13.1,0,23.7,10.6,23.7,23.7l0,0
				c0,13.1-10.6,23.7-23.7,23.7l0,0c-13.1,0-23.7-10.6-23.7-23.7l0,0C133.7,272,144.3,261.4,157.4,261.4z"/>
		</g>
		<g>
			<path class="st0" d="M131.8,133.3v1.4c-0.7,0-1.2,0.1-1.6,0.2s-0.7,0.2-0.9,0.4c-0.2,0.2-0.3,0.5-0.3,0.8c0,0.3,0.1,0.8,0.3,1.3
				l1.5,4.8h6.5l0.5-1.6l-1.4-3.7c-0.1-0.4-0.3-0.7-0.4-1c-0.2-0.3-0.4-0.5-0.6-0.7c-0.2-0.2-0.5-0.3-0.9-0.4
				c-0.4-0.1-0.8-0.2-1.4-0.2v-1.4h9.3v1.4c-0.7,0-1.3,0-1.7,0.1c-0.4,0.1-0.7,0.2-0.9,0.4c-0.2,0.2-0.3,0.5-0.2,0.8
				s0.1,0.8,0.3,1.4l1.6,4.7h6.2l1.2-4.3c0.2-0.5,0.3-1,0.4-1.4c0.1-0.4,0.1-0.7,0-1c-0.1-0.3-0.3-0.5-0.7-0.6
				c-0.4-0.1-0.9-0.2-1.5-0.2v-1.4h8.1v1.3c-1,0.1-1.7,0.3-2.2,0.6c-0.5,0.3-0.8,0.8-1,1.5l-1.7,5.4h4.7v2.4h-5.5l-4.2,13.4H144
				l-4.7-13.4H139l-4.8,13.4h-1.4l-4.4-13.4h-5.7v-2.4h4.9l-1.5-4.5c-0.1-0.5-0.3-1-0.5-1.4c-0.2-0.4-0.4-0.7-0.6-0.9
				c-0.3-0.2-0.6-0.4-1-0.5c-0.4-0.1-0.9-0.2-1.4-0.2v-1.4H131.8z M131.7,144.6l2.3,7.3l2.5-7.3H131.7z M142.3,144.6l2.5,7.4
				l2.2-7.4H142.3z"/>
		</g>
	</g>
</g>
</svg>
