<?xml version="1.0" encoding="utf-8"?>
<!-- Generator: Adobe Illustrator 23.0.2, SVG Export Plug-In . SVG Version: 6.00 Build 0)  -->
<svg version="1.1" id="방범_x5F_취침" xmlns="http://www.w3.org/2000/svg" xmlns:xlink="http://www.w3.org/1999/xlink" x="0px"
	 y="0px" viewBox="0 0 250 250" style="enable-background:new 0 0 250 250;" xml:space="preserve">
<style type="text/css">
	.st0{opacity:0.9;fill:url(#패스_7_1_);enable-background:new    ;}
</style>
<linearGradient id="패스_7_1_" gradientUnits="userSpaceOnUse" x1="6.7631" y1="241.4339" x2="9.3606" y2="241.4339" gradientTransform="matrix(42 0 0 -43.8881 -213.5978 10721.0635)">
	<stop  offset="0" style="stop-color:#ffffff"/>
	<stop  offset="0.994" style="stop-color:#ffffff"/>
</linearGradient>
<path id="패스_7" class="st0" d="M122.6,68c-1.6,0-3.2,0.1-4.7,0.2c5.3,8.3,8.1,18,8.1,27.9c0,28.8-23.4,52.2-52.2,52.2
	c-1.1,0-2.2,0-3.2-0.1c9.2,20.6,29.6,33.8,52.1,33.8c31.5,0,57-25.5,57-57c0,0,0,0,0,0C179.5,93.5,154,68,122.6,68
	C122.6,68,122.6,68,122.6,68z"/>
</svg>
