<?xml version="1.0" encoding="utf-8"?>
<!-- Generator: Adobe Illustrator 23.0.2, SVG Export Plug-In . SVG Version: 6.00 Build 0)  -->
<svg version="1.1" id="엘리베이터_x5F_하_사본"
	 xmlns="http://www.w3.org/2000/svg" xmlns:xlink="http://www.w3.org/1999/xlink" x="0px" y="0px" viewBox="0 0 250 250"
	 style="enable-background:new 0 0 250 250;" xml:space="preserve">
<style type="text/css">
	.st0{fill:#FE7888;}
</style>
<g id="그룹_2336" transform="translate(0 0)">
	<path id="패스_450" class="st0" d="M139.1,92.4c-1.1-0.7-2.3-1.2-3.6-1.4c-1.5-0.3-3-0.4-4.5-0.4h-12.5v20.7H130
		c3.8,0,6.8-0.7,9-2.2c2.2-1.4,3.3-4.1,3.3-7.9v-1.6c0.1-1.5-0.2-3-0.8-4.4C140.9,94,140.1,93.1,139.1,92.4z"/>
	<path id="패스_451" class="st0" d="M174.5,92.8c-6.8-24.1-29.9-39.8-54.8-37.2c-10.4,0.9-20.2,5.2-27.9,12.1
		C76,81.7,70.6,99.2,75.3,119.8c1.3,5.9,4.2,11.1,7,16.4c11.1,20.7,25.1,39.4,40.2,57.3c1.1,1.4,3.2,1.7,4.6,0.5
		c0.3-0.2,0.5-0.5,0.7-0.7c5.4-6.7,10.9-13.3,16.1-20.2c9.8-12.8,18.5-26.4,25.9-40.8c4.1-8.1,6.8-16.5,6.6-24.7
		C176.5,102.6,175.8,97.6,174.5,92.8z M153.9,101.4c0,2.6-0.4,5.1-1.4,7.6c-0.9,2.4-2.3,4.5-4.2,6.2c-2,1.9-4.4,3.3-7,4.3
		c-3.2,1.1-6.5,1.7-9.9,1.6h-13v25.1h-11.6V80.8h24.6c3.4-0.1,6.8,0.4,10.1,1.4c2.6,0.8,4.9,2.1,6.9,3.9c1.8,1.6,3.2,3.7,4,5.9
		c0.9,2.4,1.3,4.9,1.3,7.4L153.9,101.4z"/>
</g>
</svg>
