<?xml version="1.0" encoding="utf-8"?>
<!-- Generator: Adobe Illustrator 23.0.2, SVG Export Plug-In . SVG Version: 6.00 Build 0)  -->
<svg version="1.1" id="설정" xmlns="http://www.w3.org/2000/svg" xmlns:xlink="http://www.w3.org/1999/xlink" x="0px" y="0px"
	 viewBox="0 0 250 250" style="enable-background:new 0 0 250 250;" xml:space="preserve">
<style type="text/css">
	.st0{fill:#ffffff;}
</style>
<path id="패스_442" class="st0" d="M177.5,135c0.6-3.3,1-6.6,1-10c0-3.4-0.3-6.7-1-10l14.2-10.4c1.5-1.1,1.9-3.2,1-4.8l-12.1-21
	c-0.9-1.6-2.9-2.3-4.6-1.5l-16.1,7.2c-5.1-4.4-11-7.8-17.3-10L140.7,57c-0.2-1.9-1.8-3.3-3.6-3.3h-24.2c-1.9,0-3.4,1.4-3.6,3.3
	l-1.9,17.5c-6.3,2.2-12.2,5.6-17.3,10L74,77.4c-1.7-0.8-3.7-0.1-4.6,1.5l-12.1,21c-0.9,1.6-0.5,3.7,1,4.8L72.5,115
	c-0.6,3.3-1,6.6-1,10c0,3.4,0.3,6.7,1,10l-14.3,10.4c-1.5,1.1-2,3.2-1,4.8l12.1,21c0.9,1.6,2.9,2.3,4.6,1.5l16.1-7.2
	c5.1,4.4,11,7.8,17.3,10l1.9,17.5c0.2,1.9,1.8,3.3,3.6,3.3h24.2c1.9,0,3.4-1.4,3.6-3.3l1.9-17.5c6.3-2.2,12.2-5.6,17.3-10l16.1,7.2
	c1.7,0.8,3.7,0.1,4.6-1.5l12.1-21c0.9-1.6,0.5-3.7-1-4.8L177.5,135z M125,148.1c-12.7,0-23.1-10.3-23.1-23.1
	c0-12.7,10.3-23.1,23.1-23.1c12.7,0,23.1,10.3,23.1,23.1C148.1,137.7,137.7,148,125,148.1L125,148.1z"/>
</svg>
