<?xml version="1.0" encoding="utf-8"?>
<!-- Generator: Adobe Illustrator 23.0.2, SVG Export Plug-In . SVG Version: 6.00 Build 0)  -->
<svg version="1.1" id="날씨_x5F_비" xmlns="http://www.w3.org/2000/svg" xmlns:xlink="http://www.w3.org/1999/xlink" x="0px"
	 y="0px" viewBox="0 0 250 250" style="enable-background:new 0 0 250 250;" xml:space="preserve">
<style type="text/css">
	.st0{opacity:0.75;}
	.st1{fill:#4A9DD7;}
	.st2{filter:url(#Adobe_OpacityMaskFilter);}
	.st3{filter:url(#Adobe_OpacityMaskFilter_1_);}
	.st4{mask:url(#SVGID_1_);fill:url(#SVGID_2_);}
	.st5{fill:url(#SVGID_3_);}
	.st6{filter:url(#Adobe_OpacityMaskFilter_2_);}
	.st7{filter:url(#Adobe_OpacityMaskFilter_3_);}
	.st8{mask:url(#SVGID_4_);fill:url(#SVGID_5_);}
	.st9{fill:url(#SVGID_6_);}
	.st10{filter:url(#Adobe_OpacityMaskFilter_4_);}
	.st11{filter:url(#Adobe_OpacityMaskFilter_5_);}
	.st12{mask:url(#SVGID_7_);fill:url(#SVGID_8_);}
	.st13{fill:url(#SVGID_9_);}
</style>
<g>
	<g class="st0">
		<path class="st1" d="M84.2,173.5c-0.4,0-0.7-0.1-1.1-0.3c-1.3-0.6-1.8-2.1-1.2-3.4l5.6-10.8c0.6-1.3,2.1-1.8,3.4-1.2
			c1.3,0.6,1.8,2.1,1.2,3.4l-5.6,10.8C86.1,173,85.2,173.5,84.2,173.5z"/>
		<path class="st1" d="M93.1,184.9c-0.4,0-0.7-0.1-1.1-0.3c-1.3-0.6-1.8-2.1-1.2-3.4l11-22.2c0.6-1.3,2.1-1.8,3.4-1.2
			c1.3,0.6,1.8,2.1,1.2,3.4l-11,22.2C95,184.3,94.1,184.9,93.1,184.9z"/>
		<path class="st1" d="M103,194.1c-0.4,0-0.7-0.1-1.1-0.3c-1.3-0.6-1.8-2.1-1.2-3.4l15.4-31.4c0.6-1.3,2.1-1.8,3.4-1.2
			c1.3,0.6,1.8,2.1,1.2,3.4l-15.4,31.4C104.9,193.6,104,194.1,103,194.1z"/>
		<path class="st1" d="M117.3,194.1c-0.4,0-0.7-0.1-1.1-0.3c-1.3-0.6-1.8-2.1-1.2-3.4l15.4-31.4c0.6-1.3,2.1-1.8,3.4-1.2
			c1.3,0.6,1.8,2.1,1.2,3.4l-15.4,31.4C119.2,193.6,118.3,194.1,117.3,194.1z"/>
		<path class="st1" d="M131.6,194.1c-0.4,0-0.7-0.1-1.1-0.3c-1.3-0.6-1.8-2.1-1.2-3.4l15.4-31.4c0.6-1.3,2.1-1.8,3.4-1.2
			c1.3,0.6,1.8,2.1,1.2,3.4L134,192.6C133.5,193.6,132.6,194.1,131.6,194.1z"/>
		<path class="st1" d="M150.9,183.7c-0.4,0-0.7-0.1-1.1-0.3c-1.3-0.6-1.8-2.1-1.2-3.4l10.5-21c0.6-1.3,2.1-1.8,3.4-1.2
			c1.3,0.6,1.8,2.1,1.2,3.4l-10.5,21C152.8,183.1,151.9,183.7,150.9,183.7z"/>
	</g>
	<g>
		<defs>
			<filter id="Adobe_OpacityMaskFilter" filterUnits="userSpaceOnUse" x="57.8" y="99.6" width="51.3" height="51.1">
				<feFlood  style="flood-color:white;flood-opacity:1" result="back"/>
				<feBlend  in="SourceGraphic" in2="back" mode="normal"/>
			</filter>
		</defs>
		<mask maskUnits="userSpaceOnUse" x="57.8" y="99.6" width="51.3" height="51.1" id="SVGID_1_">
			<g class="st2">
				<defs>
					<filter id="Adobe_OpacityMaskFilter_1_" filterUnits="userSpaceOnUse" x="57.8" y="99.6" width="51.3" height="51.1">
						<feFlood  style="flood-color:white;flood-opacity:1" result="back"/>
						<feBlend  in="SourceGraphic" in2="back" mode="normal"/>
					</filter>
				</defs>
				<mask maskUnits="userSpaceOnUse" x="57.8" y="99.6" width="51.3" height="51.1" id="SVGID_1_">
					<g class="st3">
					</g>
				</mask>
				<linearGradient id="SVGID_2_" gradientUnits="userSpaceOnUse" x1="83.458" y1="150.2339" x2="83.458" y2="98.6038">
					<stop  offset="0.3" style="stop-color:#FFFFFF"/>
					<stop  offset="0.9939" style="stop-color:#B3B3B3"/>
				</linearGradient>
				<path class="st4" d="M109.1,125.2c0,14.2-11.5,25.5-25.6,25.5c-14.2,0-25.6-11.3-25.6-25.5s11.5-25.6,25.6-25.6
					C97.6,99.6,109.1,111.1,109.1,125.2z"/>
			</g>
		</mask>
		<linearGradient id="SVGID_3_" gradientUnits="userSpaceOnUse" x1="83.458" y1="150.2339" x2="83.458" y2="98.6038">
			<stop  offset="0.3" style="stop-color:#FDF6F4"/>
			<stop  offset="0.9939" style="stop-color:#FFFFFF"/>
		</linearGradient>
		<path class="st5" d="M109.1,125.2c0,14.2-11.5,25.5-25.6,25.5c-14.2,0-25.6-11.3-25.6-25.5s11.5-25.6,25.6-25.6
			C97.6,99.6,109.1,111.1,109.1,125.2z"/>
		<defs>
			<filter id="Adobe_OpacityMaskFilter_2_" filterUnits="userSpaceOnUse" x="120" y="78.7" width="72.2" height="72.2">
				<feFlood  style="flood-color:white;flood-opacity:1" result="back"/>
				<feBlend  in="SourceGraphic" in2="back" mode="normal"/>
			</filter>
		</defs>
		<mask maskUnits="userSpaceOnUse" x="120" y="78.7" width="72.2" height="72.2" id="SVGID_4_">
			<g class="st6">
				<defs>
					<filter id="Adobe_OpacityMaskFilter_3_" filterUnits="userSpaceOnUse" x="120" y="78.7" width="72.2" height="72.2">
						<feFlood  style="flood-color:white;flood-opacity:1" result="back"/>
						<feBlend  in="SourceGraphic" in2="back" mode="normal"/>
					</filter>
				</defs>
				<mask maskUnits="userSpaceOnUse" x="120" y="78.7" width="72.2" height="72.2" id="SVGID_4_">
					<g class="st7">
					</g>
				</mask>
				<linearGradient id="SVGID_5_" gradientUnits="userSpaceOnUse" x1="156.084" y1="148.8485" x2="156.084" y2="79.06">
					<stop  offset="0.3" style="stop-color:#FFFFFF"/>
					<stop  offset="0.9939" style="stop-color:#B3B3B3"/>
				</linearGradient>
				<circle class="st8" cx="156.1" cy="114.8" r="36.1"/>
			</g>
		</mask>
		<linearGradient id="SVGID_6_" gradientUnits="userSpaceOnUse" x1="156.084" y1="148.8485" x2="156.084" y2="79.06">
			<stop  offset="0.3" style="stop-color:#FDF6F4"/>
			<stop  offset="0.9939" style="stop-color:#FFFFFF"/>
		</linearGradient>
		<circle class="st9" cx="156.1" cy="114.8" r="36.1"/>
		<defs>
			<filter id="Adobe_OpacityMaskFilter_4_" filterUnits="userSpaceOnUse" x="72.3" y="55.9" width="95.6" height="94.8">
				<feFlood  style="flood-color:white;flood-opacity:1" result="back"/>
				<feBlend  in="SourceGraphic" in2="back" mode="normal"/>
			</filter>
		</defs>
		<mask maskUnits="userSpaceOnUse" x="72.3" y="55.9" width="95.6" height="94.8" id="SVGID_7_">
			<g class="st10">
				<defs>
					<filter id="Adobe_OpacityMaskFilter_5_" filterUnits="userSpaceOnUse" x="72.3" y="55.9" width="95.6" height="94.8">
						<feFlood  style="flood-color:white;flood-opacity:1" result="back"/>
						<feBlend  in="SourceGraphic" in2="back" mode="normal"/>
					</filter>
				</defs>
				<mask maskUnits="userSpaceOnUse" x="72.3" y="55.9" width="95.6" height="94.8" id="SVGID_7_">
					<g class="st11">
					</g>
				</mask>
				<linearGradient id="SVGID_8_" gradientUnits="userSpaceOnUse" x1="120.1538" y1="151.7619" x2="120.1538" y2="-3.4067">
					<stop  offset="0.3" style="stop-color:#FFFFFF"/>
					<stop  offset="0.9939" style="stop-color:#B3B3B3"/>
				</linearGradient>
				<path class="st12" d="M156.9,150.7c0,0,11.1-21.1,11.1-47.4c0-26.2-21.3-47.4-47.5-47.4h-0.7c-26.2,0-47.5,21.2-47.5,47.4
					c0,26.2,11.1,47.4,11.1,47.4L156.9,150.7z"/>
			</g>
		</mask>
		<linearGradient id="SVGID_9_" gradientUnits="userSpaceOnUse" x1="120.1538" y1="151.7619" x2="120.1538" y2="-3.4067">
			<stop  offset="0.3" style="stop-color:#FDF6F4"/>
			<stop  offset="0.9939" style="stop-color:#FFFFFF"/>
		</linearGradient>
		<path class="st13" d="M156.9,150.7c0,0,11.1-21.1,11.1-47.4c0-26.2-21.3-47.4-47.5-47.4h-0.7c-26.2,0-47.5,21.2-47.5,47.4
			c0,26.2,11.1,47.4,11.1,47.4L156.9,150.7z"/>
	</g>
</g>
</svg>
