<?xml version="1.0" encoding="utf-8"?>
<!-- Generator: Adobe Illustrator 23.0.2, SVG Export Plug-In . SVG Version: 6.00 Build 0)  -->
<svg version="1.1" id="날씨_x5F_구름_조금" xmlns="http://www.w3.org/2000/svg" xmlns:xlink="http://www.w3.org/1999/xlink"
	 x="0px" y="0px" viewBox="0 0 250 250" style="enable-background:new 0 0 250 250;" xml:space="preserve">
<style type="text/css">
	.st0{opacity:0.9;}
	.st1{fill:url(#SVGID_1_);}
	.st2{filter:url(#Adobe_OpacityMaskFilter);}
	.st3{filter:url(#Adobe_OpacityMaskFilter_1_);}
	.st4{mask:url(#SVGID_2_);fill:url(#SVGID_3_);}
	.st5{fill:url(#SVGID_4_);}
	.st6{filter:url(#Adobe_OpacityMaskFilter_2_);}
	.st7{filter:url(#Adobe_OpacityMaskFilter_3_);}
	.st8{mask:url(#SVGID_5_);fill:url(#SVGID_6_);}
	.st9{fill:url(#SVGID_7_);}
	.st10{filter:url(#Adobe_OpacityMaskFilter_4_);}
	.st11{filter:url(#Adobe_OpacityMaskFilter_5_);}
	.st12{mask:url(#SVGID_8_);fill:url(#SVGID_9_);}
	.st13{fill:url(#SVGID_10_);}
</style>
<g>
	<g class="st0">
		<linearGradient id="SVGID_1_" gradientUnits="userSpaceOnUse" x1="50" y1="107.1111" x2="122.0887" y2="107.1111">
			<stop  offset="0" style="stop-color:#F4D74F"/>
			<stop  offset="0.9939" style="stop-color:#F4C744"/>
		</linearGradient>
		<path class="st1" d="M122.1,107.1c0,19.9-16.1,36-36,36c-19.9,0-36-16.1-36-36c0-19.9,16.1-36,36-36
			C106,71.1,122.1,87.2,122.1,107.1z"/>
	</g>
	<g>
		<defs>
			<filter id="Adobe_OpacityMaskFilter" filterUnits="userSpaceOnUse" x="65.7" y="127.7" width="51.2" height="51.1">
				<feFlood  style="flood-color:white;flood-opacity:1" result="back"/>
				<feBlend  in="SourceGraphic" in2="back" mode="normal"/>
			</filter>
		</defs>
		<mask maskUnits="userSpaceOnUse" x="65.7" y="127.7" width="51.2" height="51.1" id="SVGID_2_">
			<g class="st2">
				<defs>
					<filter id="Adobe_OpacityMaskFilter_1_" filterUnits="userSpaceOnUse" x="65.7" y="127.7" width="51.2" height="51.1">
						<feFlood  style="flood-color:white;flood-opacity:1" result="back"/>
						<feBlend  in="SourceGraphic" in2="back" mode="normal"/>
					</filter>
				</defs>
				<mask maskUnits="userSpaceOnUse" x="65.7" y="127.7" width="51.2" height="51.1" id="SVGID_2_">
					<g class="st3">
					</g>
				</mask>
				<linearGradient id="SVGID_3_" gradientUnits="userSpaceOnUse" x1="91.3585" y1="178.3063" x2="91.3585" y2="126.7094">
					<stop  offset="0.3" style="stop-color:#FFFFFF"/>
					<stop  offset="0.9939" style="stop-color:#B3B3B3"/>
				</linearGradient>
				<path class="st4" d="M117,153.3c0,14.1-11.5,25.5-25.6,25.5c-14.1,0-25.6-11.3-25.6-25.5s11.5-25.6,25.6-25.6
					C105.5,127.7,117,139.2,117,153.3z"/>
			</g>
		</mask>
		<linearGradient id="SVGID_4_" gradientUnits="userSpaceOnUse" x1="91.3585" y1="178.3063" x2="91.3585" y2="126.7094">
			<stop  offset="0.3" style="stop-color:#FDF6F4"/>
			<stop  offset="0.9939" style="stop-color:#FFFFFF"/>
		</linearGradient>
		<path class="st5" d="M117,153.3c0,14.1-11.5,25.5-25.6,25.5c-14.1,0-25.6-11.3-25.6-25.5s11.5-25.6,25.6-25.6
			C105.5,127.7,117,139.2,117,153.3z"/>
		<defs>
			<filter id="Adobe_OpacityMaskFilter_2_" filterUnits="userSpaceOnUse" x="127.9" y="106.8" width="72.1" height="72.1">
				<feFlood  style="flood-color:white;flood-opacity:1" result="back"/>
				<feBlend  in="SourceGraphic" in2="back" mode="normal"/>
			</filter>
		</defs>
		<mask maskUnits="userSpaceOnUse" x="127.9" y="106.8" width="72.1" height="72.1" id="SVGID_5_">
			<g class="st6">
				<defs>
					<filter id="Adobe_OpacityMaskFilter_3_" filterUnits="userSpaceOnUse" x="127.9" y="106.8" width="72.1" height="72.1">
						<feFlood  style="flood-color:white;flood-opacity:1" result="back"/>
						<feBlend  in="SourceGraphic" in2="back" mode="normal"/>
					</filter>
				</defs>
				<mask maskUnits="userSpaceOnUse" x="127.9" y="106.8" width="72.1" height="72.1" id="SVGID_5_">
					<g class="st7">
					</g>
				</mask>
				<linearGradient id="SVGID_6_" gradientUnits="userSpaceOnUse" x1="163.938" y1="176.9219" x2="163.938" y2="107.178">
					<stop  offset="0.3" style="stop-color:#FFFFFF"/>
					<stop  offset="0.9939" style="stop-color:#B3B3B3"/>
				</linearGradient>
				<circle class="st8" cx="163.9" cy="142.9" r="36.1"/>
			</g>
		</mask>
		<linearGradient id="SVGID_7_" gradientUnits="userSpaceOnUse" x1="163.938" y1="176.9219" x2="163.938" y2="107.178">
			<stop  offset="0.3" style="stop-color:#FDF6F4"/>
			<stop  offset="0.9939" style="stop-color:#FFFFFF"/>
		</linearGradient>
		<circle class="st9" cx="163.9" cy="142.9" r="36.1"/>
		<defs>
			<filter id="Adobe_OpacityMaskFilter_4_" filterUnits="userSpaceOnUse" x="80.3" y="84" width="95.6" height="94.7">
				<feFlood  style="flood-color:white;flood-opacity:1" result="back"/>
				<feBlend  in="SourceGraphic" in2="back" mode="normal"/>
			</filter>
		</defs>
		<mask maskUnits="userSpaceOnUse" x="80.3" y="84" width="95.6" height="94.7" id="SVGID_8_">
			<g class="st10">
				<defs>
					<filter id="Adobe_OpacityMaskFilter_5_" filterUnits="userSpaceOnUse" x="80.3" y="84" width="95.6" height="94.7">
						<feFlood  style="flood-color:white;flood-opacity:1" result="back"/>
						<feBlend  in="SourceGraphic" in2="back" mode="normal"/>
					</filter>
				</defs>
				<mask maskUnits="userSpaceOnUse" x="80.3" y="84" width="95.6" height="94.7" id="SVGID_8_">
					<g class="st11">
					</g>
				</mask>
				<linearGradient id="SVGID_9_" gradientUnits="userSpaceOnUse" x1="128.0309" y1="179.8333" x2="128.0309" y2="24.7642">
					<stop  offset="0.3" style="stop-color:#FFFFFF"/>
					<stop  offset="0.9939" style="stop-color:#B3B3B3"/>
				</linearGradient>
				<path class="st12" d="M164.7,178.8c0,0,11.1-21.1,11.1-47.3c0-26.2-21.2-47.4-47.4-47.4h-0.7c-26.2,0-47.4,21.2-47.4,47.4
					c0,26.2,11.1,47.3,11.1,47.3L164.7,178.8z"/>
			</g>
		</mask>
		<linearGradient id="SVGID_10_" gradientUnits="userSpaceOnUse" x1="128.0309" y1="179.8333" x2="128.0309" y2="24.7642">
			<stop  offset="0.3" style="stop-color:#FDF6F4"/>
			<stop  offset="0.9939" style="stop-color:#FFFFFF"/>
		</linearGradient>
		<path class="st13" d="M164.7,178.8c0,0,11.1-21.1,11.1-47.3c0-26.2-21.2-47.4-47.4-47.4h-0.7c-26.2,0-47.4,21.2-47.4,47.4
			c0,26.2,11.1,47.3,11.1,47.3L164.7,178.8z"/>
	</g>
</g>
</svg>
