<?xml version="1.0" encoding="utf-8"?>
<!-- Generator: Adobe Illustrator 23.0.2, SVG Export Plug-In . SVG Version: 6.00 Build 0)  -->
<svg version="1.1" id="날씨_x5F_맑음" xmlns="http://www.w3.org/2000/svg" xmlns:xlink="http://www.w3.org/1999/xlink" x="0px"
	 y="0px" viewBox="0 0 250 250" style="enable-background:new 0 0 250 250;" xml:space="preserve">
<style type="text/css">
	.st0{opacity:0.9;fill:url(#SVGID_1_);}
	.st1{filter:url(#Adobe_OpacityMaskFilter);}
	.st2{filter:url(#Adobe_OpacityMaskFilter_1_);}
	.st3{mask:url(#SVGID_2_);fill:url(#SVGID_3_);}
	.st4{fill:url(#SVGID_4_);}
	.st5{filter:url(#Adobe_OpacityMaskFilter_2_);}
	.st6{filter:url(#Adobe_OpacityMaskFilter_3_);}
	.st7{mask:url(#SVGID_5_);fill:url(#SVGID_6_);}
	.st8{fill:url(#SVGID_7_);}
	.st9{filter:url(#Adobe_OpacityMaskFilter_4_);}
	.st10{filter:url(#Adobe_OpacityMaskFilter_5_);}
	.st11{mask:url(#SVGID_8_);fill:url(#SVGID_9_);}
	.st12{fill:url(#SVGID_10_);}
</style>
<g>
	<g>
		<linearGradient id="SVGID_1_" gradientUnits="userSpaceOnUse" x1="85.189" y1="85.1887" x2="164.623" y2="164.6228">
			<stop  offset="0" style="stop-color:#E8E787"/>
			<stop  offset="1" style="stop-color:#E5CD4F"/>
		</linearGradient>
		<path class="st0" d="M181.1,125c0,31-25.1,56.1-56.1,56.1c-31,0-56.1-25.1-56.1-56.1c0-31,25.1-56.1,56.1-56.1
			C156,68.9,181.1,94,181.1,125z"/>
	</g>
	<g>
		<defs>
			<filter id="Adobe_OpacityMaskFilter" filterUnits="userSpaceOnUse" x="68.9" y="146.8" width="21.4" height="21.3">
				<feFlood  style="flood-color:white;flood-opacity:1" result="back"/>
				<feBlend  in="SourceGraphic" in2="back" mode="normal"/>
			</filter>
		</defs>
		<mask maskUnits="userSpaceOnUse" x="68.9" y="146.8" width="21.4" height="21.3" id="SVGID_2_">
			<g class="st1">
				<defs>
					<filter id="Adobe_OpacityMaskFilter_1_" filterUnits="userSpaceOnUse" x="68.9" y="146.8" width="21.4" height="21.3">
						<feFlood  style="flood-color:white;flood-opacity:1" result="back"/>
						<feBlend  in="SourceGraphic" in2="back" mode="normal"/>
					</filter>
				</defs>
				<mask maskUnits="userSpaceOnUse" x="68.9" y="146.8" width="21.4" height="21.3" id="SVGID_2_">
					<g class="st2">
					</g>
				</mask>
				<linearGradient id="SVGID_3_" gradientUnits="userSpaceOnUse" x1="79.593" y1="167.9871" x2="79.593" y2="146.422">
					<stop  offset="0.3" style="stop-color:#FFFFFF"/>
					<stop  offset="0.9939" style="stop-color:#B3B3B3"/>
				</linearGradient>
				<path class="st3" d="M90.3,157.5c0,5.9-4.8,10.6-10.7,10.6c-5.9,0-10.7-4.7-10.7-10.6c0-5.9,4.8-10.7,10.7-10.7
					C85.5,146.8,90.3,151.6,90.3,157.5z"/>
			</g>
		</mask>
		<linearGradient id="SVGID_4_" gradientUnits="userSpaceOnUse" x1="79.593" y1="167.9871" x2="79.593" y2="146.422">
			<stop  offset="0.3" style="stop-color:#FDF6F4"/>
			<stop  offset="0.9939" style="stop-color:#FFFFFF"/>
		</linearGradient>
		<path class="st4" d="M90.3,157.5c0,5.9-4.8,10.6-10.7,10.6c-5.9,0-10.7-4.7-10.7-10.6c0-5.9,4.8-10.7,10.7-10.7
			C85.5,146.8,90.3,151.6,90.3,157.5z"/>
		<defs>
			<filter id="Adobe_OpacityMaskFilter_2_" filterUnits="userSpaceOnUse" x="94.9" y="138.1" width="30.1" height="30.1">
				<feFlood  style="flood-color:white;flood-opacity:1" result="back"/>
				<feBlend  in="SourceGraphic" in2="back" mode="normal"/>
			</filter>
		</defs>
		<mask maskUnits="userSpaceOnUse" x="94.9" y="138.1" width="30.1" height="30.1" id="SVGID_5_">
			<g class="st5">
				<defs>
					<filter id="Adobe_OpacityMaskFilter_3_" filterUnits="userSpaceOnUse" x="94.9" y="138.1" width="30.1" height="30.1">
						<feFlood  style="flood-color:white;flood-opacity:1" result="back"/>
						<feBlend  in="SourceGraphic" in2="back" mode="normal"/>
					</filter>
				</defs>
				<mask maskUnits="userSpaceOnUse" x="94.9" y="138.1" width="30.1" height="30.1" id="SVGID_5_">
					<g class="st6">
					</g>
				</mask>
				<linearGradient id="SVGID_6_" gradientUnits="userSpaceOnUse" x1="109.9278" y1="167.4085" x2="109.9278" y2="138.2589">
					<stop  offset="0.3" style="stop-color:#FFFFFF"/>
					<stop  offset="0.9939" style="stop-color:#B3B3B3"/>
				</linearGradient>
				<circle class="st7" cx="109.9" cy="153.2" r="15.1"/>
			</g>
		</mask>
		<linearGradient id="SVGID_7_" gradientUnits="userSpaceOnUse" x1="109.9278" y1="167.4085" x2="109.9278" y2="138.2589">
			<stop  offset="0.3" style="stop-color:#FDF6F4"/>
			<stop  offset="0.9939" style="stop-color:#FFFFFF"/>
		</linearGradient>
		<circle class="st8" cx="109.9" cy="153.2" r="15.1"/>
		<defs>
			<filter id="Adobe_OpacityMaskFilter_4_" filterUnits="userSpaceOnUse" x="75" y="128.6" width="39.9" height="39.6">
				<feFlood  style="flood-color:white;flood-opacity:1" result="back"/>
				<feBlend  in="SourceGraphic" in2="back" mode="normal"/>
			</filter>
		</defs>
		<mask maskUnits="userSpaceOnUse" x="75" y="128.6" width="39.9" height="39.6" id="SVGID_8_">
			<g class="st9">
				<defs>
					<filter id="Adobe_OpacityMaskFilter_5_" filterUnits="userSpaceOnUse" x="75" y="128.6" width="39.9" height="39.6">
						<feFlood  style="flood-color:white;flood-opacity:1" result="back"/>
						<feBlend  in="SourceGraphic" in2="back" mode="normal"/>
					</filter>
				</defs>
				<mask maskUnits="userSpaceOnUse" x="75" y="128.6" width="39.9" height="39.6" id="SVGID_8_">
					<g class="st10">
					</g>
				</mask>
				<linearGradient id="SVGID_9_" gradientUnits="userSpaceOnUse" x1="94.9203" y1="168.6254" x2="94.9203" y2="103.8138">
					<stop  offset="0.3" style="stop-color:#FFFFFF"/>
					<stop  offset="0.9939" style="stop-color:#B3B3B3"/>
				</linearGradient>
				<path class="st11" d="M110.3,168.2c0,0,4.6-8.8,4.6-19.8c0-11-8.9-19.8-19.8-19.8h-0.3c-10.9,0-19.8,8.9-19.8,19.8
					c0,10.9,4.6,19.8,4.6,19.8L110.3,168.2z"/>
			</g>
		</mask>
		<linearGradient id="SVGID_10_" gradientUnits="userSpaceOnUse" x1="94.9203" y1="168.6254" x2="94.9203" y2="103.8138">
			<stop  offset="0.3" style="stop-color:#FDF6F4"/>
			<stop  offset="0.9939" style="stop-color:#FFFFFF"/>
		</linearGradient>
		<path class="st12" d="M110.3,168.2c0,0,4.6-8.8,4.6-19.8c0-11-8.9-19.8-19.8-19.8h-0.3c-10.9,0-19.8,8.9-19.8,19.8
			c0,10.9,4.6,19.8,4.6,19.8L110.3,168.2z"/>
	</g>
</g>
</svg>
