<?xml version="1.0" encoding="utf-8"?>
<!-- Generator: Adobe Illustrator 23.0.2, SVG Export Plug-In . SVG Version: 6.00 Build 0)  -->
<svg version="1.1" id="날씨_x5F_눈" xmlns="http://www.w3.org/2000/svg" xmlns:xlink="http://www.w3.org/1999/xlink" x="0px"
	 y="0px" viewBox="0 0 250 250" style="enable-background:new 0 0 250 250;" xml:space="preserve">
<style type="text/css">
	.st0{filter:url(#Adobe_OpacityMaskFilter);}
	.st1{filter:url(#Adobe_OpacityMaskFilter_1_);}
	.st2{mask:url(#SVGID_1_);fill:url(#SVGID_2_);}
	.st3{fill:url(#SVGID_3_);}
	.st4{filter:url(#Adobe_OpacityMaskFilter_2_);}
	.st5{filter:url(#Adobe_OpacityMaskFilter_3_);}
	.st6{mask:url(#SVGID_4_);fill:url(#SVGID_5_);}
	.st7{fill:url(#SVGID_6_);}
	.st8{filter:url(#Adobe_OpacityMaskFilter_4_);}
	.st9{filter:url(#Adobe_OpacityMaskFilter_5_);}
	.st10{mask:url(#SVGID_7_);fill:url(#SVGID_8_);}
	.st11{fill:url(#SVGID_9_);}
	.st12{opacity:0.75;fill:#4A9DD7;}
</style>
<g>
	<g>
		<defs>
			<filter id="Adobe_OpacityMaskFilter" filterUnits="userSpaceOnUse" x="57.8" y="99.6" width="51.3" height="51.1">
				<feFlood  style="flood-color:white;flood-opacity:1" result="back"/>
				<feBlend  in="SourceGraphic" in2="back" mode="normal"/>
			</filter>
		</defs>
		<mask maskUnits="userSpaceOnUse" x="57.8" y="99.6" width="51.3" height="51.1" id="SVGID_1_">
			<g class="st0">
				<defs>
					<filter id="Adobe_OpacityMaskFilter_1_" filterUnits="userSpaceOnUse" x="57.8" y="99.6" width="51.3" height="51.1">
						<feFlood  style="flood-color:white;flood-opacity:1" result="back"/>
						<feBlend  in="SourceGraphic" in2="back" mode="normal"/>
					</filter>
				</defs>
				<mask maskUnits="userSpaceOnUse" x="57.8" y="99.6" width="51.3" height="51.1" id="SVGID_1_">
					<g class="st1">
					</g>
				</mask>
				<linearGradient id="SVGID_2_" gradientUnits="userSpaceOnUse" x1="83.458" y1="150.2339" x2="83.458" y2="98.6038">
					<stop  offset="0.3" style="stop-color:#FFFFFF"/>
					<stop  offset="0.9939" style="stop-color:#B3B3B3"/>
				</linearGradient>
				<path class="st2" d="M109.1,125.2c0,14.2-11.5,25.5-25.6,25.5c-14.2,0-25.6-11.3-25.6-25.5s11.5-25.6,25.6-25.6
					C97.6,99.6,109.1,111.1,109.1,125.2z"/>
			</g>
		</mask>
		<linearGradient id="SVGID_3_" gradientUnits="userSpaceOnUse" x1="83.458" y1="150.2339" x2="83.458" y2="98.6038">
			<stop  offset="0.3" style="stop-color:#FDF6F4"/>
			<stop  offset="0.9939" style="stop-color:#FFFFFF"/>
		</linearGradient>
		<path class="st3" d="M109.1,125.2c0,14.2-11.5,25.5-25.6,25.5c-14.2,0-25.6-11.3-25.6-25.5s11.5-25.6,25.6-25.6
			C97.6,99.6,109.1,111.1,109.1,125.2z"/>
		<defs>
			<filter id="Adobe_OpacityMaskFilter_2_" filterUnits="userSpaceOnUse" x="120" y="78.7" width="72.2" height="72.2">
				<feFlood  style="flood-color:white;flood-opacity:1" result="back"/>
				<feBlend  in="SourceGraphic" in2="back" mode="normal"/>
			</filter>
		</defs>
		<mask maskUnits="userSpaceOnUse" x="120" y="78.7" width="72.2" height="72.2" id="SVGID_4_">
			<g class="st4">
				<defs>
					<filter id="Adobe_OpacityMaskFilter_3_" filterUnits="userSpaceOnUse" x="120" y="78.7" width="72.2" height="72.2">
						<feFlood  style="flood-color:white;flood-opacity:1" result="back"/>
						<feBlend  in="SourceGraphic" in2="back" mode="normal"/>
					</filter>
				</defs>
				<mask maskUnits="userSpaceOnUse" x="120" y="78.7" width="72.2" height="72.2" id="SVGID_4_">
					<g class="st5">
					</g>
				</mask>
				<linearGradient id="SVGID_5_" gradientUnits="userSpaceOnUse" x1="156.084" y1="148.8485" x2="156.084" y2="79.06">
					<stop  offset="0.3" style="stop-color:#FFFFFF"/>
					<stop  offset="0.9939" style="stop-color:#B3B3B3"/>
				</linearGradient>
				<circle class="st6" cx="156.1" cy="114.8" r="36.1"/>
			</g>
		</mask>
		<linearGradient id="SVGID_6_" gradientUnits="userSpaceOnUse" x1="156.084" y1="148.8485" x2="156.084" y2="79.06">
			<stop  offset="0.3" style="stop-color:#FDF6F4"/>
			<stop  offset="0.9939" style="stop-color:#FFFFFF"/>
		</linearGradient>
		<circle class="st7" cx="156.1" cy="114.8" r="36.1"/>
		<defs>
			<filter id="Adobe_OpacityMaskFilter_4_" filterUnits="userSpaceOnUse" x="72.3" y="55.9" width="95.6" height="94.8">
				<feFlood  style="flood-color:white;flood-opacity:1" result="back"/>
				<feBlend  in="SourceGraphic" in2="back" mode="normal"/>
			</filter>
		</defs>
		<mask maskUnits="userSpaceOnUse" x="72.3" y="55.9" width="95.6" height="94.8" id="SVGID_7_">
			<g class="st8">
				<defs>
					<filter id="Adobe_OpacityMaskFilter_5_" filterUnits="userSpaceOnUse" x="72.3" y="55.9" width="95.6" height="94.8">
						<feFlood  style="flood-color:white;flood-opacity:1" result="back"/>
						<feBlend  in="SourceGraphic" in2="back" mode="normal"/>
					</filter>
				</defs>
				<mask maskUnits="userSpaceOnUse" x="72.3" y="55.9" width="95.6" height="94.8" id="SVGID_7_">
					<g class="st9">
					</g>
				</mask>
				<linearGradient id="SVGID_8_" gradientUnits="userSpaceOnUse" x1="120.1538" y1="151.7619" x2="120.1538" y2="-3.4067">
					<stop  offset="0.3" style="stop-color:#FFFFFF"/>
					<stop  offset="0.9939" style="stop-color:#B3B3B3"/>
				</linearGradient>
				<path class="st10" d="M156.9,150.7c0,0,11.1-21.1,11.1-47.4c0-26.2-21.3-47.4-47.5-47.4h-0.7c-26.2,0-47.5,21.2-47.5,47.4
					c0,26.2,11.1,47.4,11.1,47.4L156.9,150.7z"/>
			</g>
		</mask>
		<linearGradient id="SVGID_9_" gradientUnits="userSpaceOnUse" x1="120.1538" y1="151.7619" x2="120.1538" y2="-3.4067">
			<stop  offset="0.3" style="stop-color:#FDF6F4"/>
			<stop  offset="0.9939" style="stop-color:#FFFFFF"/>
		</linearGradient>
		<path class="st11" d="M156.9,150.7c0,0,11.1-21.1,11.1-47.4c0-26.2-21.3-47.4-47.5-47.4h-0.7c-26.2,0-47.5,21.2-47.5,47.4
			c0,26.2,11.1,47.4,11.1,47.4L156.9,150.7z"/>
	</g>
	<path class="st12" d="M144.2,173.6h-3l1.1-1.5c0.5-0.6,0.3-1.4-0.3-1.9c-0.6-0.5-1.4-0.3-1.9,0.3l-2.4,3.1h-6.4l8.9-8.9
		c0.5-0.5,0.5-1.4,0-1.9c-0.5-0.5-1.4-0.5-1.9,0l-9.1,9.1v-6.4l3.4-2.6c0.6-0.5,0.7-1.3,0.3-1.9c-0.5-0.6-1.3-0.7-1.9-0.3l-1.8,1.4
		V159c0-0.7-0.8-1.4-1.5-1.4c-0.7,0-1.5,0.6-1.5,1.4v2.9l-1.5-1.1c-0.6-0.5-1.4-0.3-1.9,0.3c-0.5,0.6-0.3,1.4,0.3,1.9l3.1,2.4v6.4
		l-8.9-8.9c-0.5-0.5-1.4-0.5-1.9,0c-0.5,0.5-0.5,1.4,0,1.9l8.9,8.9H118l-2.4-3.1c-0.5-0.6-1.3-0.7-1.9-0.3c-0.6,0.5-0.7,1.3-0.3,1.9
		l1.1,1.5h-2.9c-0.7,0-1.4,0.8-1.4,1.5c0,0.7,0.6,1.5,1.4,1.5h3l-1.3,1.8c-0.5,0.6-0.3,1.4,0.3,1.9c0.2,0.2,0.5,0.3,0.8,0.3
		c0.4,0,0.8-0.2,1.1-0.5l2.6-3.4h6.4l-9.1,9.1c-0.5,0.5-0.5,1.4,0,1.9c0.3,0.3,0.6,0.4,1,0.4s0.7-0.1,1-0.4l8.9-8.9v6.4l-3.1,2.4
		c-0.6,0.5-0.7,1.3-0.3,1.9c0.5,0.6,1.3,0.7,1.9,0.3l1.5-1.1v2.9c0,0.7,0.8,1.4,1.5,1.4c0.7,0,1.5-0.6,1.5-1.4v-3.1l1.8,1.4
		c0.2,0.2,0.5,0.3,0.8,0.3c0.4,0,0.8-0.2,1.1-0.5c0.5-0.6,0.3-1.4-0.3-1.9l-3.4-2.6v-6.4l9.1,9.1c0.3,0.3,0.6,0.4,1,0.4
		c0.3,0,0.7-0.1,1-0.4c0.5-0.5,0.5-1.4,0-1.9l-9.1-9.1h6.5l2.6,3.4c0.3,0.3,0.7,0.5,1.1,0.5c0.3,0,0.6-0.1,0.8-0.3
		c0.6-0.5,0.7-1.3,0.3-1.9l-1.3-1.8h3.2c0.7,0,1.4-0.8,1.4-1.5C145.6,174.3,145,173.6,144.2,173.6z"/>
	<path class="st12" d="M105.3,169.6h-2.2l0.9-1.1c0.3-0.4,0.3-1.1-0.2-1.4c-0.4-0.3-1.1-0.3-1.4,0.2l-1.8,2.4h-4.8l6.7-6.7
		c0.4-0.4,0.4-1,0-1.4c-0.4-0.4-1-0.4-1.4,0l-6.9,6.9v-4.8l2.6-2c0.4-0.3,0.5-1,0.2-1.4c-0.3-0.4-1-0.5-1.4-0.2l-1.3,1v-2.3
		c0-0.6-0.6-1-1.1-1c-0.6,0-1.1,0.5-1.1,1v2.2l-1.1-0.8c-0.4-0.3-1.1-0.3-1.4,0.2c-0.3,0.4-0.3,1.1,0.2,1.4l2.3,1.8v4.8l-6.7-6.7
		c-0.4-0.4-1-0.4-1.4,0c-0.4,0.4-0.4,1,0,1.4l6.7,6.7h-4.7l-1.8-2.4c-0.3-0.4-1-0.5-1.4-0.2c-0.4,0.3-0.5,1-0.2,1.4l0.9,1.1H81
		c-0.6,0-1,0.6-1,1.1c0,0.6,0.5,1.1,1,1.1h2.3l-1,1.3c-0.3,0.4-0.3,1.1,0.2,1.4c0.2,0.1,0.4,0.2,0.6,0.2c0.3,0,0.6-0.1,0.8-0.4
		l1.9-2.5h4.8l-6.9,6.9c-0.4,0.4-0.4,1,0,1.4c0.2,0.2,0.5,0.3,0.7,0.3c0.3,0,0.5-0.1,0.7-0.3l6.7-6.7v4.8l-2.3,1.8
		c-0.4,0.3-0.5,1-0.2,1.4c0.3,0.4,1,0.5,1.4,0.2l1.1-0.8v2.2c0,0.6,0.6,1,1.1,1c0.6,0,1.1-0.5,1.1-1v-2.4l1.3,1
		c0.2,0.1,0.4,0.2,0.6,0.2c0.3,0,0.6-0.1,0.8-0.4c0.3-0.4,0.3-1.1-0.2-1.4l-2.6-2v-4.8l6.9,6.9c0.2,0.2,0.5,0.3,0.7,0.3
		c0.3,0,0.5-0.1,0.7-0.3c0.4-0.4,0.4-1,0-1.4l-6.9-6.9h4.8l1.9,2.5c0.2,0.3,0.5,0.4,0.8,0.4c0.2,0,0.4-0.1,0.6-0.2
		c0.4-0.3,0.5-1,0.2-1.4l-1-1.3h2.4c0.6,0,1-0.6,1-1.1C106.3,170.1,105.9,169.6,105.3,169.6z"/>
	<path class="st12" d="M167.1,167.3h-1.8l0.7-0.9c0.3-0.4,0.2-0.9-0.2-1.1c-0.4-0.3-0.9-0.2-1.1,0.2l-1.4,1.9h-3.8l5.3-5.3
		c0.3-0.3,0.3-0.8,0-1.1c-0.3-0.3-0.8-0.3-1.1,0l-5.5,5.5v-3.8l2.1-1.6c0.4-0.3,0.4-0.8,0.2-1.1c-0.3-0.4-0.8-0.4-1.1-0.2l-1.1,0.8
		v-1.9c0-0.4-0.5-0.8-0.9-0.8c-0.4,0-0.9,0.4-0.9,0.8v1.7l-0.9-0.7c-0.4-0.3-0.9-0.2-1.1,0.2c-0.3,0.4-0.2,0.9,0.2,1.1l1.9,1.4v3.8
		l-5.3-5.3c-0.3-0.3-0.8-0.3-1.1,0c-0.3,0.3-0.3,0.8,0,1.1l5.3,5.3h-3.8l-1.4-1.9c-0.3-0.4-0.8-0.4-1.1-0.2
		c-0.4,0.3-0.4,0.8-0.2,1.1l0.7,0.9h-1.7c-0.4,0-0.8,0.5-0.8,0.9s0.4,0.9,0.8,0.9h1.8l-0.8,1.1c-0.3,0.4-0.2,0.9,0.2,1.1
		c0.1,0.1,0.3,0.2,0.5,0.2c0.2,0,0.5-0.1,0.6-0.3l1.5-2h3.8l-5.5,5.5c-0.3,0.3-0.3,0.8,0,1.1c0.2,0.2,0.4,0.2,0.6,0.2
		s0.4-0.1,0.6-0.2l5.3-5.3v3.8l-1.9,1.4c-0.4,0.3-0.4,0.8-0.2,1.1c0.3,0.4,0.8,0.4,1.1,0.2l0.9-0.7v1.7c0,0.4,0.5,0.8,0.9,0.8
		c0.4,0,0.9-0.4,0.9-0.8v-1.9l1.1,0.8c0.1,0.1,0.3,0.2,0.5,0.2c0.2,0,0.5-0.1,0.6-0.3c0.3-0.4,0.2-0.9-0.2-1.1l-2.1-1.6v-3.8
		l5.5,5.5c0.2,0.2,0.4,0.2,0.6,0.2c0.2,0,0.4-0.1,0.6-0.2c0.3-0.3,0.3-0.8,0-1.1l-5.5-5.5h3.9l1.5,2c0.2,0.2,0.4,0.3,0.6,0.3
		c0.2,0,0.3-0.1,0.5-0.2c0.4-0.3,0.4-0.8,0.2-1.1l-0.8-1.1h1.9c0.4,0,0.8-0.5,0.8-0.9S167.5,167.3,167.1,167.3z"/>
</g>
</svg>
