<?xml version="1.0" encoding="utf-8"?>
<!-- Generator: Adobe Illustrator 23.0.2, SVG Export Plug-In . SVG Version: 6.00 Build 0)  -->
<svg version="1.1" id="날씨_x5F_흐림" xmlns="http://www.w3.org/2000/svg" xmlns:xlink="http://www.w3.org/1999/xlink" x="0px"
	 y="0px" viewBox="0 0 250 250" style="enable-background:new 0 0 250 250;" xml:space="preserve">
<style type="text/css">
	.st0{filter:url(#Adobe_OpacityMaskFilter);}
	.st1{filter:url(#Adobe_OpacityMaskFilter_1_);}
	.st2{mask:url(#SVGID_1_);fill:url(#SVGID_2_);}
	.st3{fill:url(#SVGID_3_);}
	.st4{filter:url(#Adobe_OpacityMaskFilter_2_);}
	.st5{filter:url(#Adobe_OpacityMaskFilter_3_);}
	.st6{mask:url(#SVGID_4_);fill:url(#SVGID_5_);}
	.st7{fill:url(#SVGID_6_);}
	.st8{filter:url(#Adobe_OpacityMaskFilter_4_);}
	.st9{filter:url(#Adobe_OpacityMaskFilter_5_);}
	.st10{mask:url(#SVGID_7_);fill:url(#SVGID_8_);}
	.st11{fill:url(#SVGID_9_);}
</style>
<g>
	<defs>
		<filter id="Adobe_OpacityMaskFilter" filterUnits="userSpaceOnUse" x="57.9" y="121.2" width="51.2" height="51.1">
			<feFlood  style="flood-color:white;flood-opacity:1" result="back"/>
			<feBlend  in="SourceGraphic" in2="back" mode="normal"/>
		</filter>
	</defs>
	<mask maskUnits="userSpaceOnUse" x="57.9" y="121.2" width="51.2" height="51.1" id="SVGID_1_">
		<g class="st0">
			<defs>
				<filter id="Adobe_OpacityMaskFilter_1_" filterUnits="userSpaceOnUse" x="57.9" y="121.2" width="51.2" height="51.1">
					<feFlood  style="flood-color:white;flood-opacity:1" result="back"/>
					<feBlend  in="SourceGraphic" in2="back" mode="normal"/>
				</filter>
			</defs>
			<mask maskUnits="userSpaceOnUse" x="57.9" y="121.2" width="51.2" height="51.1" id="SVGID_1_">
				<g class="st1">
				</g>
			</mask>
			<linearGradient id="SVGID_2_" gradientUnits="userSpaceOnUse" x1="83.4846" y1="171.819" x2="83.4846" y2="120.2221">
				<stop  offset="0.3" style="stop-color:#FFFFFF"/>
				<stop  offset="0.9939" style="stop-color:#B3B3B3"/>
			</linearGradient>
			<path class="st2" d="M109.1,146.8c0,14.1-11.5,25.5-25.6,25.5c-14.1,0-25.6-11.3-25.6-25.5s11.5-25.6,25.6-25.6
				C97.6,121.2,109.1,132.7,109.1,146.8z"/>
		</g>
	</mask>
	<linearGradient id="SVGID_3_" gradientUnits="userSpaceOnUse" x1="83.4846" y1="171.819" x2="83.4846" y2="120.2221">
		<stop  offset="0.3" style="stop-color:#FDF6F4"/>
		<stop  offset="0.9939" style="stop-color:#FFFFFF"/>
	</linearGradient>
	<path class="st3" d="M109.1,146.8c0,14.1-11.5,25.5-25.6,25.5c-14.1,0-25.6-11.3-25.6-25.5s11.5-25.6,25.6-25.6
		C97.6,121.2,109.1,132.7,109.1,146.8z"/>
	<defs>
		<filter id="Adobe_OpacityMaskFilter_2_" filterUnits="userSpaceOnUse" x="120" y="100.3" width="72.1" height="72.1">
			<feFlood  style="flood-color:white;flood-opacity:1" result="back"/>
			<feBlend  in="SourceGraphic" in2="back" mode="normal"/>
		</filter>
	</defs>
	<mask maskUnits="userSpaceOnUse" x="120" y="100.3" width="72.1" height="72.1" id="SVGID_4_">
		<g class="st4">
			<defs>
				<filter id="Adobe_OpacityMaskFilter_3_" filterUnits="userSpaceOnUse" x="120" y="100.3" width="72.1" height="72.1">
					<feFlood  style="flood-color:white;flood-opacity:1" result="back"/>
					<feBlend  in="SourceGraphic" in2="back" mode="normal"/>
				</filter>
			</defs>
			<mask maskUnits="userSpaceOnUse" x="120" y="100.3" width="72.1" height="72.1" id="SVGID_4_">
				<g class="st5">
				</g>
			</mask>
			<linearGradient id="SVGID_5_" gradientUnits="userSpaceOnUse" x1="156.0641" y1="170.4346" x2="156.0641" y2="100.6908">
				<stop  offset="0.3" style="stop-color:#FFFFFF"/>
				<stop  offset="0.9939" style="stop-color:#B3B3B3"/>
			</linearGradient>
			<circle class="st6" cx="156.1" cy="136.4" r="36.1"/>
		</g>
	</mask>
	<linearGradient id="SVGID_6_" gradientUnits="userSpaceOnUse" x1="156.0641" y1="170.4346" x2="156.0641" y2="100.6908">
		<stop  offset="0.3" style="stop-color:#FDF6F4"/>
		<stop  offset="0.9939" style="stop-color:#FFFFFF"/>
	</linearGradient>
	<circle class="st7" cx="156.1" cy="136.4" r="36.1"/>
	<defs>
		<filter id="Adobe_OpacityMaskFilter_4_" filterUnits="userSpaceOnUse" x="72.4" y="77.6" width="95.6" height="94.7">
			<feFlood  style="flood-color:white;flood-opacity:1" result="back"/>
			<feBlend  in="SourceGraphic" in2="back" mode="normal"/>
		</filter>
	</defs>
	<mask maskUnits="userSpaceOnUse" x="72.4" y="77.6" width="95.6" height="94.7" id="SVGID_7_">
		<g class="st8">
			<defs>
				<filter id="Adobe_OpacityMaskFilter_5_" filterUnits="userSpaceOnUse" x="72.4" y="77.6" width="95.6" height="94.7">
					<feFlood  style="flood-color:white;flood-opacity:1" result="back"/>
					<feBlend  in="SourceGraphic" in2="back" mode="normal"/>
				</filter>
			</defs>
			<mask maskUnits="userSpaceOnUse" x="72.4" y="77.6" width="95.6" height="94.7" id="SVGID_7_">
				<g class="st9">
				</g>
			</mask>
			<linearGradient id="SVGID_8_" gradientUnits="userSpaceOnUse" x1="120.157" y1="173.346" x2="120.157" y2="18.2769">
				<stop  offset="0.3" style="stop-color:#FFFFFF"/>
				<stop  offset="0.9939" style="stop-color:#B3B3B3"/>
			</linearGradient>
			<path class="st10" d="M156.9,172.3c0,0,11.1-21.1,11.1-47.3c0-26.2-21.2-47.4-47.4-47.4h-0.7c-26.2,0-47.4,21.2-47.4,47.4
				c0,26.2,11.1,47.3,11.1,47.3L156.9,172.3z"/>
		</g>
	</mask>
	<linearGradient id="SVGID_9_" gradientUnits="userSpaceOnUse" x1="120.157" y1="173.346" x2="120.157" y2="18.2769">
		<stop  offset="0.3" style="stop-color:#FDF6F4"/>
		<stop  offset="0.9939" style="stop-color:#FFFFFF"/>
	</linearGradient>
	<path class="st11" d="M156.9,172.3c0,0,11.1-21.1,11.1-47.3c0-26.2-21.2-47.4-47.4-47.4h-0.7c-26.2,0-47.4,21.2-47.4,47.4
		c0,26.2,11.1,47.3,11.1,47.3L156.9,172.3z"/>
</g>
</svg>
