<?xml version="1.0" encoding="utf-8"?>
<!-- Generator: Adobe Illustrator 23.0.2, SVG Export Plug-In . SVG Version: 6.00 Build 0)  -->
<svg version="1.1" id="날씨_x5F_구름_많음" xmlns="http://www.w3.org/2000/svg" xmlns:xlink="http://www.w3.org/1999/xlink"
	 x="0px" y="0px" viewBox="0 0 250 250" style="enable-background:new 0 0 250 250;" xml:space="preserve">
<style type="text/css">
	.st0{opacity:0.6;}
	.st1{filter:url(#Adobe_OpacityMaskFilter);}
	.st2{filter:url(#Adobe_OpacityMaskFilter_1_);}
	.st3{mask:url(#SVGID_1_);fill:url(#SVGID_2_);}
	.st4{fill:#6EBBE8;}
	.st5{filter:url(#Adobe_OpacityMaskFilter_2_);}
	.st6{filter:url(#Adobe_OpacityMaskFilter_3_);}
	.st7{mask:url(#SVGID_3_);fill:url(#SVGID_4_);}
	.st8{filter:url(#Adobe_OpacityMaskFilter_4_);}
	.st9{filter:url(#Adobe_OpacityMaskFilter_5_);}
	.st10{mask:url(#SVGID_5_);fill:url(#SVGID_6_);}
	.st11{filter:url(#Adobe_OpacityMaskFilter_6_);}
	.st12{filter:url(#Adobe_OpacityMaskFilter_7_);}
	.st13{mask:url(#SVGID_7_);fill:url(#SVGID_8_);}
	.st14{fill:url(#SVGID_9_);}
	.st15{filter:url(#Adobe_OpacityMaskFilter_8_);}
	.st16{filter:url(#Adobe_OpacityMaskFilter_9_);}
	.st17{mask:url(#SVGID_10_);fill:url(#SVGID_11_);}
	.st18{fill:url(#SVGID_12_);}
	.st19{filter:url(#Adobe_OpacityMaskFilter_10_);}
	.st20{filter:url(#Adobe_OpacityMaskFilter_11_);}
	.st21{mask:url(#SVGID_13_);fill:url(#SVGID_14_);}
	.st22{fill:url(#SVGID_15_);}
</style>
<g>
	<g class="st0">
		<defs>
			<filter id="Adobe_OpacityMaskFilter" filterUnits="userSpaceOnUse" x="36.8" y="98.2" width="60.6" height="60.6">
				<feFlood  style="flood-color:white;flood-opacity:1" result="back"/>
				<feBlend  in="SourceGraphic" in2="back" mode="normal"/>
			</filter>
		</defs>
		<mask maskUnits="userSpaceOnUse" x="36.8" y="98.2" width="60.6" height="60.6" id="SVGID_1_">
			<g class="st1">
				<defs>
					<filter id="Adobe_OpacityMaskFilter_1_" filterUnits="userSpaceOnUse" x="36.8" y="98.2" width="60.6" height="60.6">
						<feFlood  style="flood-color:white;flood-opacity:1" result="back"/>
						<feBlend  in="SourceGraphic" in2="back" mode="normal"/>
					</filter>
				</defs>
				<mask maskUnits="userSpaceOnUse" x="36.8" y="98.2" width="60.6" height="60.6" id="SVGID_1_">
					<g class="st2">
					</g>
				</mask>
				<linearGradient id="SVGID_2_" gradientUnits="userSpaceOnUse" x1="67.1569" y1="158.1662" x2="67.1569" y2="89.3064">
					<stop  offset="0.3" style="stop-color:#FFFFFF"/>
					<stop  offset="0.9939" style="stop-color:#B3B3B3"/>
				</linearGradient>
				<path class="st3" d="M97.5,128.5c0,16.7-13.6,30.3-30.3,30.3c-16.7,0-30.3-13.6-30.3-30.3c0-16.7,13.6-30.3,30.3-30.3
					C83.9,98.2,97.5,111.8,97.5,128.5z"/>
			</g>
		</mask>
		<path class="st4" d="M97.5,128.5c0,16.7-13.6,30.3-30.3,30.3c-16.7,0-30.3-13.6-30.3-30.3c0-16.7,13.6-30.3,30.3-30.3
			C83.9,98.2,97.5,111.8,97.5,128.5z"/>
		<defs>
			<filter id="Adobe_OpacityMaskFilter_2_" filterUnits="userSpaceOnUse" x="102.8" y="87.2" width="71.7" height="71.7">
				<feFlood  style="flood-color:white;flood-opacity:1" result="back"/>
				<feBlend  in="SourceGraphic" in2="back" mode="normal"/>
			</filter>
		</defs>
		<mask maskUnits="userSpaceOnUse" x="102.8" y="87.2" width="71.7" height="71.7" id="SVGID_3_">
			<g class="st5">
				<defs>
					<filter id="Adobe_OpacityMaskFilter_3_" filterUnits="userSpaceOnUse" x="102.8" y="87.2" width="71.7" height="71.7">
						<feFlood  style="flood-color:white;flood-opacity:1" result="back"/>
						<feBlend  in="SourceGraphic" in2="back" mode="normal"/>
					</filter>
				</defs>
				<mask maskUnits="userSpaceOnUse" x="102.8" y="87.2" width="71.7" height="71.7" id="SVGID_3_">
					<g class="st6">
					</g>
				</mask>
				<linearGradient id="SVGID_4_" gradientUnits="userSpaceOnUse" x1="138.6792" y1="158.1662" x2="138.6792" y2="72.8612">
					<stop  offset="0.3" style="stop-color:#FFFFFF"/>
					<stop  offset="0.9939" style="stop-color:#B3B3B3"/>
				</linearGradient>
				<path class="st7" d="M174.5,123c0,19.8-16,35.8-35.8,35.8c-19.8,0-35.8-16-35.8-35.8c0-19.8,16-35.8,35.8-35.8
					C158.5,87.2,174.5,103.2,174.5,123z"/>
			</g>
		</mask>
		<path class="st4" d="M174.5,123c0,19.8-16,35.8-35.8,35.8c-19.8,0-35.8-16-35.8-35.8c0-19.8,16-35.8,35.8-35.8
			C158.5,87.2,174.5,103.2,174.5,123z"/>
		<defs>
			<filter id="Adobe_OpacityMaskFilter_4_" filterUnits="userSpaceOnUse" x="55.5" y="64.7" width="95" height="94">
				<feFlood  style="flood-color:white;flood-opacity:1" result="back"/>
				<feBlend  in="SourceGraphic" in2="back" mode="normal"/>
			</filter>
		</defs>
		<mask maskUnits="userSpaceOnUse" x="55.5" y="64.7" width="95" height="94" id="SVGID_5_">
			<g class="st8">
				<defs>
					<filter id="Adobe_OpacityMaskFilter_5_" filterUnits="userSpaceOnUse" x="55.5" y="64.7" width="95" height="94">
						<feFlood  style="flood-color:white;flood-opacity:1" result="back"/>
						<feBlend  in="SourceGraphic" in2="back" mode="normal"/>
					</filter>
				</defs>
				<mask maskUnits="userSpaceOnUse" x="55.5" y="64.7" width="95" height="94" id="SVGID_5_">
					<g class="st9">
					</g>
				</mask>
				<linearGradient id="SVGID_6_" gradientUnits="userSpaceOnUse" x1="102.9936" y1="153.8153" x2="102.9936" y2="8.2026">
					<stop  offset="0.3" style="stop-color:#FFFFFF"/>
					<stop  offset="0.9939" style="stop-color:#B3B3B3"/>
				</linearGradient>
				<path class="st10" d="M139.5,158.7c0,0,11-20.9,11-47c0-26-21.1-47-47.1-47h-0.7c-26,0-47.1,21-47.1,47c0,26,11,47,11,47
					L139.5,158.7z"/>
			</g>
		</mask>
		<path class="st4" d="M139.5,158.7c0,0,11-20.9,11-47c0-26-21.1-47-47.1-47h-0.7c-26,0-47.1,21-47.1,47c0,26,11,47,11,47
			L139.5,158.7z"/>
	</g>
	<g>
		<defs>
			<filter id="Adobe_OpacityMaskFilter_6_" filterUnits="userSpaceOnUse" x="75.5" y="119" width="60.6" height="60.6">
				<feFlood  style="flood-color:white;flood-opacity:1" result="back"/>
				<feBlend  in="SourceGraphic" in2="back" mode="normal"/>
			</filter>
		</defs>
		<mask maskUnits="userSpaceOnUse" x="75.5" y="119" width="60.6" height="60.6" id="SVGID_7_">
			<g class="st11">
				<defs>
					<filter id="Adobe_OpacityMaskFilter_7_" filterUnits="userSpaceOnUse" x="75.5" y="119" width="60.6" height="60.6">
						<feFlood  style="flood-color:white;flood-opacity:1" result="back"/>
						<feBlend  in="SourceGraphic" in2="back" mode="normal"/>
					</filter>
				</defs>
				<mask maskUnits="userSpaceOnUse" x="75.5" y="119" width="60.6" height="60.6" id="SVGID_7_">
					<g class="st12">
					</g>
				</mask>
				<linearGradient id="SVGID_8_" gradientUnits="userSpaceOnUse" x1="105.7922" y1="179.0786" x2="105.7922" y2="117.8413">
					<stop  offset="0.3" style="stop-color:#FFFFFF"/>
					<stop  offset="0.9939" style="stop-color:#B3B3B3"/>
				</linearGradient>
				<path class="st13" d="M136.1,149.3c0,16.7-13.6,30.3-30.3,30.3c-16.7,0-30.3-13.6-30.3-30.3c0-16.7,13.6-30.3,30.3-30.3
					C122.5,119,136.1,132.6,136.1,149.3z"/>
			</g>
		</mask>
		<linearGradient id="SVGID_9_" gradientUnits="userSpaceOnUse" x1="105.7922" y1="179.0786" x2="105.7922" y2="117.8413">
			<stop  offset="0.3" style="stop-color:#FDF6F4"/>
			<stop  offset="0.9939" style="stop-color:#FFFFFF"/>
		</linearGradient>
		<path class="st14" d="M136.1,149.3c0,16.7-13.6,30.3-30.3,30.3c-16.7,0-30.3-13.6-30.3-30.3c0-16.7,13.6-30.3,30.3-30.3
			C122.5,119,136.1,132.6,136.1,149.3z"/>
		<defs>
			<filter id="Adobe_OpacityMaskFilter_8_" filterUnits="userSpaceOnUse" x="141.5" y="107.9" width="71.7" height="71.7">
				<feFlood  style="flood-color:white;flood-opacity:1" result="back"/>
				<feBlend  in="SourceGraphic" in2="back" mode="normal"/>
			</filter>
		</defs>
		<mask maskUnits="userSpaceOnUse" x="141.5" y="107.9" width="71.7" height="71.7" id="SVGID_10_">
			<g class="st15">
				<defs>
					<filter id="Adobe_OpacityMaskFilter_9_" filterUnits="userSpaceOnUse" x="141.5" y="107.9" width="71.7" height="71.7">
						<feFlood  style="flood-color:white;flood-opacity:1" result="back"/>
						<feBlend  in="SourceGraphic" in2="back" mode="normal"/>
					</filter>
				</defs>
				<mask maskUnits="userSpaceOnUse" x="141.5" y="107.9" width="71.7" height="71.7" id="SVGID_10_">
					<g class="st16">
					</g>
				</mask>
				<linearGradient id="SVGID_11_" gradientUnits="userSpaceOnUse" x1="177.3145" y1="177.6207" x2="177.3145" y2="108.3075">
					<stop  offset="0.3" style="stop-color:#FFFFFF"/>
					<stop  offset="0.9939" style="stop-color:#B3B3B3"/>
				</linearGradient>
				<path class="st17" d="M213.2,143.8c0,19.8-16,35.8-35.8,35.8c-19.8,0-35.8-16-35.8-35.8c0-19.8,16-35.8,35.8-35.8
					C197.1,107.9,213.2,124,213.2,143.8z"/>
			</g>
		</mask>
		<linearGradient id="SVGID_12_" gradientUnits="userSpaceOnUse" x1="177.3145" y1="177.6207" x2="177.3145" y2="108.3075">
			<stop  offset="0.3" style="stop-color:#FDF6F4"/>
			<stop  offset="0.9939" style="stop-color:#FFFFFF"/>
		</linearGradient>
		<path class="st18" d="M213.2,143.8c0,19.8-16,35.8-35.8,35.8c-19.8,0-35.8-16-35.8-35.8c0-19.8,16-35.8,35.8-35.8
			C197.1,107.9,213.2,124,213.2,143.8z"/>
		<defs>
			<filter id="Adobe_OpacityMaskFilter_10_" filterUnits="userSpaceOnUse" x="94.1" y="85.5" width="95" height="94">
				<feFlood  style="flood-color:white;flood-opacity:1" result="back"/>
				<feBlend  in="SourceGraphic" in2="back" mode="normal"/>
			</filter>
		</defs>
		<mask maskUnits="userSpaceOnUse" x="94.1" y="85.5" width="95" height="94" id="SVGID_13_">
			<g class="st19">
				<defs>
					<filter id="Adobe_OpacityMaskFilter_11_" filterUnits="userSpaceOnUse" x="94.1" y="85.5" width="95" height="94">
						<feFlood  style="flood-color:white;flood-opacity:1" result="back"/>
						<feBlend  in="SourceGraphic" in2="back" mode="normal"/>
					</filter>
				</defs>
				<mask maskUnits="userSpaceOnUse" x="94.1" y="85.5" width="95" height="94" id="SVGID_13_">
					<g class="st20">
					</g>
				</mask>
				<linearGradient id="SVGID_14_" gradientUnits="userSpaceOnUse" x1="141.6289" y1="180.556" x2="141.6289" y2="26.6566">
					<stop  offset="0.3" style="stop-color:#FFFFFF"/>
					<stop  offset="0.9939" style="stop-color:#B3B3B3"/>
				</linearGradient>
				<path class="st21" d="M178.1,179.4c0,0,11-20.9,11-47c0-26-21.1-47-47.1-47h-0.7c-26,0-47.1,21-47.1,47c0,26,11,47,11,47
					L178.1,179.4z"/>
			</g>
		</mask>
		<linearGradient id="SVGID_15_" gradientUnits="userSpaceOnUse" x1="141.6289" y1="180.556" x2="141.6289" y2="26.6566">
			<stop  offset="0.3" style="stop-color:#FDF6F4"/>
			<stop  offset="0.9939" style="stop-color:#FFFFFF"/>
		</linearGradient>
		<path class="st22" d="M178.1,179.4c0,0,11-20.9,11-47c0-26-21.1-47-47.1-47h-0.7c-26,0-47.1,21-47.1,47c0,26,11,47,11,47
			L178.1,179.4z"/>
	</g>
</g>
</svg>
