<?xml version="1.0" encoding="utf-8"?>
<!-- Generator: Adobe Illustrator 23.0.2, SVG Export Plug-In . SVG Version: 6.00 Build 0)  -->
<svg version="1.1" id="래미안_로고" xmlns="http://www.w3.org/2000/svg" xmlns:xlink="http://www.w3.org/1999/xlink" x="0px"
	 y="0px" viewBox="0 0 250 250" style="enable-background:new 0 0 250 250;" xml:space="preserve">
<style type="text/css">
	.st0{fill:#706F73;}
</style>
<g>
	<g>
		<path class="st0" d="M55.2,136.3h-4c-0.7,0-1.3-0.5-1.6-0.9l-6.3-8.4c-0.7-0.9-1.4-1.1-1.9-1.1h-0.2l-1-1.4H41
			c4.7,0,5.8-2.3,5.8-5c0-2.6-1.2-4.7-4.9-4.7h-1.8v19.1c0,0.8,0.1,1.8,0.3,2.4h-4c0.1-0.5,0.2-1.6,0.2-2.2v-19.1c0-0.5,0-1-0.1-1.4
			h6.8c3.6,0,7.7,1.5,7.7,6c0,5-4.9,6-5.1,6.1l-0.2,0.1v0.1l0.2,0c0.7,0.2,1.2,0.6,2.3,2l5.9,7.2C54.2,135.5,54.7,135.9,55.2,136.3z
			"/>
		<path class="st0" d="M150.3,113.7c0.1,0.3,0.1,0.9,0.1,1.3v19.4c0,0.6-0.1,1.5-0.2,2h4c-0.1-0.5-0.2-1.4-0.2-2V115
			c0-0.4,0-0.9,0.1-1.3H150.3z"/>
		<path class="st0" d="M200.2,114.9l9.8,19.6V115c0-0.4,0-0.9-0.1-1.3h3.8c-0.1,0.3-0.1,0.9-0.1,1.3v19.4c0,0.6,0.1,1.5,0.2,2
			l-4.6,0l-10-19.8v17.3c0,1.1,0.1,2,0.2,2.5h-3.9c0.1-0.5,0.2-1.4,0.2-2V115c0-0.4,0-0.9-0.1-1.3h2.5
			C199,113.7,199.6,113.9,200.2,114.9z"/>
		<path class="st0" d="M120.8,114.7l5.4,14.9l5.7-15.9h3.1c0.7,0,1.7,0.3,1.7,1.6v19c0,0.6,0.1,1.5,0.2,2H133
			c0.1-0.5,0.2-1.4,0.2-2.5v-17.3l-5.8,16h-1.6l-5.8-16v17.3c0,1.1,0.1,2,0.2,2.5h-3.9c0.1-0.5,0.2-1.4,0.2-2V115
			c0-0.4,0-0.9-0.1-1.3h2.7C120,113.7,120.5,113.8,120.8,114.7z"/>
		<path class="st0" d="M94.7,136.3l11.1,0l-0.3-1.6c-0.8,0.2-2.3,0.3-3.5,0.3h-5.8v-10.3h7.6v-1.4c-0.5,0.1-1,0.1-1.3,0.1h-6.2V115
			h7c0.6,0,1.2,0,1.9,0.1v-1.4H92.6c0.1,0.3,0.1,0.9,0.1,1.3v19.4C92.7,135.4,93.2,136.3,94.7,136.3z"/>
		<path class="st0" d="M183.8,134.1l-6.4-19.1c-0.4-1.1-1.1-1.3-1.7-1.3H172c0,0.3-0.1,1.1-0.5,2.5l-5.6,18.2
			c-0.2,0.8-0.7,1.5-0.9,1.9h2.9c0-0.6,0.1-1,0.2-1.5l2.4-8.1h7.4l2.5,7.8c0.2,0.6,0.3,1.2,0.4,1.8h4.1
			C184.4,135.6,184.1,135,183.8,134.1z M170.8,125.4l3-10.1h0.2l3.3,10.1H170.8z"/>
		<path class="st0" d="M81.1,134.1L74.6,115c-0.4-1.1-1.1-1.3-1.7-1.3h-3.7c0,0.3-0.1,1.1-0.5,2.5l-5.6,18.2
			c-0.2,0.8-0.7,1.5-0.9,1.9h2.9c0-0.6,0.1-1,0.2-1.5l2.4-8.1H75l2.5,7.8c0.2,0.6,0.3,1.2,0.4,1.8h4.1
			C81.6,135.6,81.4,135,81.1,134.1z M68.1,125.4l3-10.1h0.2l3.3,10.1H68.1z"/>
	</g>
</g>
</svg>
